# Blender 5.2.0 LTS
# www.blender.org
mtllib Slash_trail.mtl
o BézierCurve
v 1.000000 0.000000 -0.431994
v 0.856987 -0.030851 -0.304841
v 0.696491 -0.048415 -0.196881
v 0.546656 -0.059995 -0.128742
v 0.301216 -0.074109 -0.037113
v 0.158405 -0.077384 -0.008641
v 0.000989 -0.077384 0.004125
v -0.147347 -0.075157 -0.007086
v -0.301551 -0.069087 -0.037375
v -0.551193 -0.051836 -0.136746
v -0.702008 -0.038397 -0.214820
v -0.848980 -0.023749 -0.311014
v -1.000000 0.000000 -0.431994
v 1.000000 0.000000 -0.396674
v 0.856986 0.000000 -0.171711
v 0.696491 0.000000 -0.022996
v 0.546656 0.000000 0.096764
v 0.301216 0.000000 0.226431
v 0.158405 0.000000 0.263053
v 0.000989 0.000000 0.294839
v -0.147347 0.000000 0.264609
v -0.301551 0.000000 0.226169
v -0.551597 0.000000 0.088437
v -0.702975 0.000000 -0.041710
v -0.851857 0.000000 -0.180188
v -1.000000 0.000000 -0.396674
v -0.426372 -0.060462 -0.087060
v -0.426574 0.000000 0.179039
v 0.423936 -0.067052 -0.082928
v 0.423936 0.000000 0.183333
v 1.000000 0.000000 -2.016517
v 0.856987 -0.030851 -1.889364
v 0.696491 -0.048415 -1.781403
v 0.546656 -0.059995 -1.713265
v 0.301216 -0.074109 -1.621636
v 0.158405 -0.077384 -1.593164
v 0.000989 -0.077384 -1.580397
v -0.147347 -0.075157 -1.591609
v -0.301551 -0.069087 -1.621898
v -0.551193 -0.051836 -1.721268
v -0.702008 -0.038397 -1.799342
v -0.848980 -0.023749 -1.895537
v -1.000000 0.000000 -2.016517
v -0.426372 -0.060462 -1.671583
v 0.423936 -0.067052 -1.667450
v 0.856987 0.030851 -0.304841
v 0.696491 0.048415 -0.196881
v 0.546656 0.059995 -0.128742
v 0.301216 0.074109 -0.037113
v 0.158405 0.077384 -0.008641
v 0.000989 0.077384 0.004125
v -0.147347 0.075157 -0.007086
v -0.301551 0.069087 -0.037375
v -0.551193 0.051836 -0.136746
v -0.702008 0.038397 -0.214820
v -0.848980 0.023749 -0.311014
v -0.426372 0.060462 -0.087060
v 0.423936 0.067052 -0.082928
v 0.856987 0.030851 -1.889364
v 0.696491 0.048415 -1.781403
v 0.546656 0.059995 -1.713265
v 0.301216 0.074109 -1.621636
v 0.158405 0.077384 -1.593164
v 0.000989 0.077384 -1.580397
v -0.147347 0.075157 -1.591609
v -0.301551 0.069087 -1.621898
v -0.551193 0.051836 -1.721268
v -0.702008 0.038397 -1.799342
v -0.848980 0.023749 -1.895537
v -0.426372 0.060462 -1.671583
v 0.423936 0.067052 -1.667450
vn 0.9814 -0.0000 0.1920
vn 0.2189 -0.9705 0.1012
vn 0.1630 -0.9778 0.1313
vn 0.1265 -0.9834 0.1304
vn 0.0708 -0.9878 0.1389
vn 0.0347 -0.9895 0.1404
vn -0.0052 -0.9902 0.1393
vn -0.0448 -0.9897 0.1361
vn -0.0800 -0.9882 0.1309
vn -0.1298 -0.9851 0.1129
vn -0.1477 -0.9835 0.1047
vn -0.1697 -0.9823 0.0791
vn -0.9770 -0.0000 0.2132
vn 0.8764 -0.0000 0.4816
vn 0.7514 -0.0000 0.6599
vn 0.6405 -0.0000 0.7679
vn 0.5663 -0.0000 0.8242
vn 0.3284 -0.0000 0.9445
vn 0.1931 -0.0000 0.9812
vn -0.0118 -0.0000 0.9999
vn -0.2172 -0.0000 0.9761
vn -0.3589 -0.0000 0.9334
vn -0.6061 -0.0000 0.7954
vn -0.6788 -0.0000 0.7343
vn -0.7536 -0.0000 0.6573
vn -0.8619 -0.0000 0.5071
vn -0.1074 -0.9877 0.1138
vn -0.5064 -0.0000 0.8623
vn 0.1020 -0.9867 0.1263
vn 0.4684 -0.0000 0.8835
vn 1.0000 -0.0000 -0.0000
vn 0.1804 -0.9836 -0.0000
vn 0.0978 -0.9952 -0.0000
vn 0.0696 -0.9976 -0.0000
vn 0.0431 -0.9991 -0.0000
vn 0.0124 -0.9999 -0.0000
vn -0.0075 -1.0000 -0.0000
vn -0.0282 -0.9996 -0.0000
vn -0.0567 -0.9984 -0.0000
vn -0.0815 -0.9967 -0.0000
vn -0.0957 -0.9954 -0.0000
vn -0.1381 -0.9904 -0.0000
vn -1.0000 -0.0000 -0.0000
vn -0.0689 -0.9976 -0.0000
vn 0.0574 -0.9984 -0.0000
vn 0.2189 0.9705 0.1012
vn 0.1630 0.9778 0.1313
vn 0.1265 0.9834 0.1304
vn 0.0708 0.9878 0.1389
vn 0.0347 0.9895 0.1404
vn -0.0052 0.9902 0.1393
vn -0.0448 0.9897 0.1361
vn -0.0800 0.9882 0.1309
vn -0.1298 0.9851 0.1129
vn -0.1477 0.9835 0.1047
vn -0.1697 0.9823 0.0791
vn -0.1074 0.9877 0.1138
vn 0.1020 0.9867 0.1263
vn 0.1804 0.9836 -0.0000
vn 0.0978 0.9952 -0.0000
vn 0.0696 0.9976 -0.0000
vn 0.0431 0.9991 -0.0000
vn 0.0124 0.9999 -0.0000
vn -0.0075 1.0000 -0.0000
vn -0.0282 0.9996 -0.0000
vn -0.0567 0.9984 -0.0000
vn -0.0815 0.9967 -0.0000
vn -0.0957 0.9954 -0.0000
vn -0.1381 0.9904 -0.0000
vn -0.0689 0.9976 -0.0000
vn 0.0574 0.9984 -0.0000
vt 0.997964 0.699198
vt 0.928351 0.796834
vt 0.925214 0.737962
vt 0.998134 0.683965
vt 0.848842 0.862153
vt 0.845313 0.784159
vt 0.773886 0.914315
vt 0.770909 0.813377
vt 0.712382 0.951799
vt 0.650947 0.970719
vt 0.649072 0.852383
vt 0.709992 0.832981
vt 0.579366 0.986603
vt 0.578460 0.864518
vt 0.500456 1.000000
vt 0.500679 0.870055
vt 0.426178 0.987053
vt 0.427354 0.865261
vt 0.348998 0.970159
vt 0.351053 0.852428
vt 0.286554 0.949369
vt 0.224155 0.909991
vt 0.226989 0.810142
vt 0.289024 0.831372
vt 0.148813 0.853318
vt 0.151883 0.776734
vt 0.075307 0.792734
vt 0.078623 0.735423
vt 0.002688 0.698849
vt 0.002611 0.683614
vt 0.771905 0.130840
vt 0.846676 0.101498
vt 0.288227 0.148727
vt 0.350303 0.170099
vt 0.427002 0.183143
vt 0.649878 0.170234
vt 0.710853 0.150544
vt 0.226076 0.127338
vt 0.578871 0.182484
vt 0.927218 0.054908
vt 1.000000 0.000186
vt 0.150863 0.093725
vt 0.500684 0.187971
vt 0.077414 0.052271
vt 0.001471 0.000186
s 1
f 14/1/14 15/2/15 2/3/2 1/4/1
f 15/2/15 16/5/16 3/6/3 2/3/2
f 16/5/16 17/7/17 4/8/4 3/6/3
f 30/9/30 18/10/18 5/11/5 29/12/29
f 18/10/18 19/13/19 6/14/6 5/11/5
f 19/13/19 20/15/20 7/16/7 6/14/6
f 20/15/20 21/17/21 8/18/8 7/16/7
f 21/17/21 22/19/22 9/20/9 8/18/8
f 28/21/28 23/22/23 10/23/10 27/24/27
f 23/22/23 24/25/24 11/26/11 10/23/10
f 24/25/24 25/27/25 12/28/12 11/26/11
f 25/27/25 26/29/26 13/30/13 12/28/12
f 22/19/22 28/21/28 27/24/27 9/20/9
f 17/7/17 30/9/30 29/12/29 4/8/4
f 3/6/3 4/8/4 34/31/34 33/32/33
f 9/20/9 27/24/27 44/33/44 39/34/39
f 8/18/8 9/20/9 39/34/39 38/35/38
f 29/12/29 5/11/5 35/36/35 45/37/45
f 27/24/27 10/23/10 40/38/40 44/33/44
f 4/8/4 29/12/29 45/37/45 34/31/34
f 5/11/5 6/14/6 36/39/36 35/36/35
f 1/4/1 2/3/2 32/40/32 31/41/31
f 10/23/10 11/26/11 41/42/41 40/38/40
f 6/14/6 7/16/7 37/43/37 36/39/36
f 2/3/2 3/6/3 33/32/33 32/40/32
f 11/26/11 12/28/12 42/44/42 41/42/41
f 12/28/12 13/30/13 43/45/43 42/44/42
f 7/16/7 8/18/8 38/35/38 37/43/37
f 14/1/14 1/4/1 46/3/46 15/2/15
f 15/2/15 46/3/46 47/6/47 16/5/16
f 16/5/16 47/6/47 48/8/48 17/7/17
f 30/9/30 58/12/58 49/11/49 18/10/18
f 18/10/18 49/11/49 50/14/50 19/13/19
f 19/13/19 50/14/50 51/16/51 20/15/20
f 20/15/20 51/16/51 52/18/52 21/17/21
f 21/17/21 52/18/52 53/20/53 22/19/22
f 28/21/28 57/24/57 54/23/54 23/22/23
f 23/22/23 54/23/54 55/26/55 24/25/24
f 24/25/24 55/26/55 56/28/56 25/27/25
f 25/27/25 56/28/56 13/30/13 26/29/26
f 22/19/22 53/20/53 57/24/57 28/21/28
f 17/7/17 48/8/48 58/12/58 30/9/30
f 47/6/47 60/32/60 61/31/61 48/8/48
f 53/20/53 66/34/66 70/33/70 57/24/57
f 52/18/52 65/35/65 66/34/66 53/20/53
f 58/12/58 71/37/71 62/36/62 49/11/49
f 57/24/57 70/33/70 67/38/67 54/23/54
f 48/8/48 61/31/61 71/37/71 58/12/58
f 49/11/49 62/36/62 63/39/63 50/14/50
f 1/4/1 31/41/31 59/40/59 46/3/46
f 54/23/54 67/38/67 68/42/68 55/26/55
f 50/14/50 63/39/63 64/43/64 51/16/51
f 46/3/46 59/40/59 60/32/60 47/6/47
f 55/26/55 68/42/68 69/44/69 56/28/56
f 56/28/56 69/44/69 43/45/43 13/30/13
f 51/16/51 64/43/64 65/35/65 52/18/52
