# Blender 5.2.0 LTS
# www.blender.org
mtllib Slash.mtl
o BézierCurve
v 1.000000 0.000000 -0.431994
v 0.856987 -0.030851 -0.304841
v 0.856987 0.030851 -0.304841
v 0.696491 -0.048415 -0.196881
v 0.696491 0.048415 -0.196881
v 0.546656 -0.059995 -0.128742
v 0.546656 0.059995 -0.128742
v 0.301216 -0.074109 -0.037113
v 0.301216 0.074109 -0.037113
v 0.158405 -0.077384 -0.008641
v 0.158405 0.077384 -0.008641
v 0.000989 -0.077384 0.004125
v 0.000989 0.077384 0.004125
v -0.147347 -0.075157 -0.007086
v -0.147347 0.075157 -0.007086
v -0.301551 -0.069087 -0.037375
v -0.301551 0.069087 -0.037375
v -0.551193 -0.051836 -0.136746
v -0.551597 0.051773 -0.137069
v -0.702008 -0.038397 -0.214820
v -0.702975 0.038245 -0.215595
v -0.848980 -0.023749 -0.311014
v -0.851857 0.023296 -0.313318
v -1.000000 0.000000 -0.431994
v 1.000000 0.000000 -0.396674
v 0.856986 0.000000 -0.171711
v 0.696491 0.000000 -0.022996
v 0.546656 0.000000 0.096764
v 0.301216 0.000000 0.226431
v 0.158405 0.000000 0.263053
v 0.000989 0.000000 0.294839
v -0.147347 0.000000 0.264609
v -0.301551 0.000000 0.226169
v -0.551597 0.000000 0.088437
v -0.702975 0.000000 -0.041710
v -0.851857 0.000000 -0.180188
v -1.000000 0.000000 -0.396674
v -0.426574 0.060430 -0.087222
v -0.426372 -0.060462 -0.087060
v -0.426574 0.000000 0.179039
v 0.423936 0.067052 -0.082928
v 0.423936 -0.067052 -0.082928
v 0.423936 0.000000 0.183333
vn 0.8764 -0.0000 0.4816
vn 0.2909 -0.9369 0.1938
vn 0.2909 0.9369 0.1938
vn 0.2281 -0.9416 0.2476
vn 0.2281 0.9416 0.2476
vn 0.1833 -0.9499 0.2530
vn 0.1833 0.9499 0.2530
vn 0.1002 -0.9597 0.2624
vn 0.1002 0.9597 0.2624
vn 0.0566 -0.9616 0.2687
vn 0.0566 0.9616 0.2687
vn -0.0030 -0.9646 0.2636
vn -0.0030 0.9646 0.2636
vn -0.0615 -0.9635 0.2604
vn -0.0615 0.9635 0.2604
vn -0.1045 -0.9637 0.2458
vn -0.1046 0.9637 0.2457
vn -0.1784 -0.9596 0.2176
vn -0.1784 0.9597 0.2173
vn -0.1979 -0.9593 0.2016
vn -0.1977 0.9595 0.2006
vn -0.2192 -0.9636 0.1534
vn -0.2187 0.9638 0.1522
vn -0.8619 0.0005 0.5071
vn 0.7514 -0.0000 0.6599
vn 0.6405 -0.0000 0.7679
vn 0.5663 -0.0000 0.8242
vn 0.3284 -0.0000 0.9445
vn 0.1931 -0.0000 0.9812
vn -0.0118 -0.0000 0.9999
vn -0.2172 -0.0000 0.9761
vn -0.3590 -0.0000 0.9333
vn -0.6064 0.0001 0.7952
vn -0.6792 0.0003 0.7339
vn -0.7537 0.0004 0.6573
vn -0.1444 0.9634 0.2259
vn -0.1443 -0.9634 0.2261
vn -0.5066 -0.0000 0.8622
vn 0.1447 0.9573 0.2504
vn 0.1447 -0.9573 0.2504
vn 0.4684 -0.0000 0.8835
vt 1.000000 1.000000
vt 0.908993 1.000000
vt 0.908993 0.000000
vt 1.000000 0.000000
vt 0.815168 1.000000
vt 0.815168 0.000000
vt 0.734067 1.000000
vt 0.734067 0.000000
vt 0.669340 1.000000
vt 0.604613 1.000000
vt 0.604613 0.000000
vt 0.669340 0.000000
vt 0.533052 1.000000
vt 0.533052 0.000000
vt 0.456414 1.000000
vt 0.456414 0.000000
vt 0.386321 1.000000
vt 0.386321 0.000000
vt 0.314775 1.000000
vt 0.314775 0.000000
vt 0.257932 1.000000
vt 0.201089 1.000000
vt 0.201270 0.000000
vt 0.258022 0.000000
vt 0.132870 1.000000
vt 0.133302 0.000000
vt 0.066184 1.000000
vt 0.067469 0.000000
vt 0.000000 1.000000
vt 0.000000 0.000000
vt 0.066184 0.000000
vt 0.132870 0.000000
vt 0.201089 0.000000
vt 0.257932 0.000000
vt 0.604613 0.000000
s 1
f 25/1/1 26/2/25 2/3/2 1/4/1
f 26/2/25 27/5/26 4/6/4 2/3/2
f 27/5/26 28/7/27 6/8/6 4/6/4
f 43/9/41 29/10/28 8/11/8 42/12/40
f 29/10/28 30/13/29 10/14/10 8/11/8
f 30/13/29 31/15/30 12/16/12 10/14/10
f 31/15/30 32/17/31 14/18/14 12/16/12
f 32/17/31 33/19/32 16/20/16 14/18/14
f 40/21/38 34/22/33 18/23/18 39/24/37
f 34/22/33 35/25/34 20/26/20 18/23/18
f 35/25/34 36/27/35 22/28/22 20/26/20
f 36/27/35 37/29/24 24/30/24 22/28/22
f 23/31/23 24/30/24 37/29/24 36/27/35
f 21/32/21 23/31/23 36/27/35 35/25/34
f 19/33/19 21/32/21 35/25/34 34/22/33
f 38/34/36 19/33/19 34/22/33 40/21/38
f 15/18/15 17/20/17 33/19/32 32/17/31
f 13/16/13 15/18/15 32/17/31 31/15/30
f 11/14/11 13/16/13 31/15/30 30/13/29
f 9/35/9 11/14/11 30/13/29 29/10/28
f 41/12/39 9/35/9 29/10/28 43/9/41
f 5/6/5 7/8/7 28/7/27 27/5/26
f 3/3/3 5/6/5 27/5/26 26/2/25
f 1/4/1 3/3/3 26/2/25 25/1/1
f 17/20/17 38/34/36 40/21/38 33/19/32
f 33/19/32 40/21/38 39/24/37 16/20/16
f 7/8/7 41/12/39 43/9/41 28/7/27
f 28/7/27 43/9/41 42/12/40 6/8/6
